<?xml version="1.0" standalone="no"?>
<!DOCTYPE svg PUBLIC "-//W3C//DTD SVG 20010904//EN"
 "http://www.w3.org/TR/2001/REC-SVG-20010904/DTD/svg10.dtd">
<svg version="1.0" xmlns="http://www.w3.org/2000/svg"
 width="1280.000000pt" height="1144.000000pt" viewBox="0 0 1280.000000 1144.000000"
 preserveAspectRatio="xMidYMid meet">
<metadata>
Created by potrace 1.15, written by Peter Selinger 2001-2017
</metadata>
<g transform="translate(0.000000,1144.000000) scale(0.100000,-0.100000)"
fill="white" stroke="none">
<path d="M5578 11170 c-575 -27 -1160 -152 -1701 -366 -188 -74 -568 -261
-742 -366 -422 -253 -711 -482 -1087 -860 -217 -217 -418 -442 -406 -453 2 -2
150 43 328 101 376 121 427 135 615 168 303 53 405 61 800 61 387 0 493 -8
775 -56 741 -126 1415 -428 1980 -887 132 -107 411 -386 513 -513 42 -53 77
-99 77 -102 0 -4 -8 -7 -17 -7 -9 0 -60 -21 -112 -46 -81 -40 -109 -60 -186
-138 -103 -103 -167 -212 -207 -352 -30 -106 -32 -323 -4 -429 68 -259 246
-461 478 -542 55 -20 100 -27 179 -31 167 -7 286 26 422 119 32 22 60 39 62
37 2 -2 11 -61 21 -133 27 -195 25 -609 -4 -802 -50 -334 -138 -625 -282 -929
-55 -117 -44 -111 -210 -113 -153 -2 -225 -25 -260 -84 -58 -95 22 -307 134
-358 23 -10 85 -26 140 -36 l98 -18 -6 -43 c-12 -89 -66 -175 -130 -209 -28
-14 -29 -14 -59 24 -83 102 -128 126 -232 125 -83 -1 -167 -27 -242 -77 -106
-70 -136 -152 -93 -253 l22 -51 -37 -33 c-136 -120 -356 -278 -542 -391 -973
-589 -2224 -768 -3380 -482 -338 84 -795 259 -945 363 -75 51 -141 92 -150 92
-17 0 -20 -32 -7 -77 14 -51 207 -345 301 -458 32 -38 107 -133 166 -210 808
-1042 1999 -1756 3292 -1974 327 -55 468 -66 875 -66 376 0 482 6 755 46 1382
199 2640 950 3488 2083 612 818 971 1756 1074 2806 17 179 17 821 0 990 -74
722 -249 1338 -553 1949 -383 771 -929 1427 -1611 1937 -977 730 -2176 1099
-3390 1044z"/>
</g>
</svg>
